<?xml version="1.0" encoding="utf-8"?>
<!-- Svg Vector Icons : http://www.onlinewebfonts.com/icon -->
<!DOCTYPE svg PUBLIC "-//W3C//DTD SVG 1.1//EN" "http://www.w3.org/Graphics/SVG/1.1/DTD/svg11.dtd">
<svg version="1.1" xmlns="http://www.w3.org/2000/svg" xmlns:xlink="http://www.w3.org/1999/xlink" x="0px" y="0px" viewBox="0 0 1000 1000" enable-background="new 0 0 1000 1000" xml:space="preserve">
<metadata> Svg Vector Icons : http://www.onlinewebfonts.com/icon </metadata>
<g><g transform="translate(0.000000,511.000000) scale(0.100000,-0.100000)"><path d="M5516.2,4998.6c-332.5-51.1-511.5-104.4-767.3-232.3c-601.1-300.5-1057.2-861.1-1229.9-1517.6c-46.9-179-55.4-253.6-55.4-517.9c0-262.2,8.5-338.9,55.4-513.7c95.9-362.3,268.6-679.9,537.1-989c78.9-89.5,138.5-164.1,134.3-168.4c-2.1-2.1-78.9-36.2-166.2-74.6c-618.1-270.7-1232-792.9-1658.3-1411l-66.1-98l225.9-147.1c125.8-81,238.7-153.4,253.6-164.1c17-10.7,66.1,42.6,149.2,159.9c181.2,260,590.4,660.7,861.1,839.8c272.8,181.2,558.4,324,837.7,415.6l208.9,68.2l164.1-57.5c255.8-87.4,441.2-119.4,714-119.4c281.4,0,490.2,36.2,741.8,127.9c91.7,32,170.5,55.4,176.9,49c4.3-6.4,106.6-42.6,225.9-83.1C7914.1,211.4,8749.7-666.8,9065.1-1756c70.3-240.8,70.3-409.2,2.1-556.3c-63.9-138.5-183.3-270.7-309.1-345.3l-98-57.5l-2082.5-6.4l-2084.5-4.3v-298.4v-298.4h2059c2276.4,0,2172-6.4,2459.7,138.5c524.3,264.3,799.3,850.4,671.4,1430.2c-147.1,662.9-545.7,1357.7-1095.6,1907.7c-362.3,362.3-752.4,639.4-1172.3,833.4l-176.9,83.1l104.4,110.8c245.1,257.9,441.2,590.4,545.6,920.8c309.1,980.5-136.4,2048.3-1084.9,2608.9C6441.3,4924,5870.1,5049.8,5516.2,4998.6z M6166.3,4350.7c317.6-81,558.4-225.9,790.8-475.3c255.8-275,400.7-626.7,426.3-1035.9c55.4-859-483.8-1573-1310.8-1739.3c-215.3-44.8-620.3-34.1-822.7,21.3c-321.9,87.4-658.6,311.2-852.6,567c-225.9,300.5-332.5,628.8-334.6,1031.6c-2.1,324,38.4,507.3,174.8,788.6C4572,4203.6,5373.4,4553.1,6166.3,4350.7z"/><path d="M1922.6-1284.9c-36.2-17-89.5-61.8-117.2-100.2c-51.2-72.5-51.2-76.7-57.5-705.5l-6.4-635.2H1134c-671.4,0-709.8-6.4-797.2-130c-36.2-49-51.1-98-51.1-170.5c0-115.1,44.8-194,142.8-253.7c64-40.5,110.8-42.6,692.7-42.6h622.4v-611.7c0-686.3,6.4-716.2,147.1-810c123.6-83.1,321.9-49,400.7,70.3c34.1,53.3,40.5,127.9,49,701.3l10.7,639.4l639.4,10.7c473.2,8.5,652.2,17.1,688.5,38.4c125.8,72.5,172.6,285.6,89.5,419.9c-81,132.2-117.2,138.6-807.8,138.6h-620.3v635.2c0,581.9-4.3,637.3-40.5,699.1C2227.4-1272.1,2061.2-1225.2,1922.6-1284.9z"/></g></g>
</svg>